#!OML:ASF I:\Random Stuff\random\construction\7_22_03\Session 2\subj1.ASF
:FULLY-SPECIFIED
:DEGREES
991
root 5.42931 17.5664 2.3265 348.986 89.298 343.155
lowerback 0.848864 1.793 1.31845
upperback -2.41534 2.45248 0.281405
thorax -2.91196 1.20538 -0.531099
lowerneck -20.2341 1.16904 2.46376
upperneck 26.3387 1.04758 0.374227
head 12.044 0.897481 -0.079515
rclavicle -6.36111e-015 1.98785e-016
rhumerus -3.99611 -23.1859 -16.3737
rradius 22.42
rwrist 14.7334
rhand -17.7509 15.4407
rfingers 7.12502
rthumb 8.51069 -14.3678
lclavicle -6.36111e-015 1.98785e-016
lhumerus -11.6996 12.9246 19.6814
lradius 40.3282
lwrist 33.3689
lhand -24.8 60.436
lfingers 7.12502
lthumb 1.70471 -90.409
rfemur -8.68649 12.5261 22.4427
rtibia 21.7942
rfoot -13.8589 -18.96
rtoes -18.0885
lfemur -13.8696 -17.701 -18.7235
ltibia 27.578
lfoot -18.1558 12.1666
ltoes -26.2751
992
root 5.43662 17.5662 2.32685 349.385 89.3794 343.535
lowerback 0.895037 1.78897 1.25413
upperback -2.41298 2.44562 0.26604
thorax -2.93761 1.20293 -0.512341
lowerneck -20.1167 1.19514 2.48974
upperneck 26.2772 1.05218 0.47183
head 11.9964 0.915246 -0.0475377
rclavicle -9.83363e-015 3.97569e-016
rhumerus -3.44887 -25.3461 -14.7551
rradius 21.7142
rwrist 16.2629
rhand -17.8706 14.7422
rfingers 7.12502
rthumb 8.39522 -15.071
lclavicle -9.83363e-015 3.97569e-016
lhumerus -10.9747 13.4354 17.9905
lradius 40.4398
lwrist 32.0605
lhand -24.5259 59.8681
lfingers 7.12502
lthumb 1.96944 -270.161
rfemur -8.6601 12.5874 22.4228
rtibia 21.7668
rfoot -13.7598 -19.0869
rtoes -18.0613
lfemur -13.8886 -17.872 -18.756
ltibia 27.6337
lfoot -18.2448 12.2696
ltoes -26.23
993
root 5.44425 17.565 2.32666 341.895 89.4668 336.043
lowerback 0.93964 1.76354 1.2752
upperback -2.39057 2.4123 0.269861
thorax -2.9395 1.1857 -0.520181
lowerneck -20.016 1.19461 2.47471
upperneck 26.2258 1.02159 0.604589
head 11.9554 0.91782 -0.00107644
rclavicle 1.58903e-014 0
rhumerus -2.95827 -27.0867 -13.3182
rradius 21.0965
rwrist 16.9985
rhand -17.8935 13.7518
rfingers 7.12502
rthumb 8.37308 -16.0622
lclavicle 1.58903e-014 0
lhumerus -10.3439 13.9647 16.3832
lradius 40.5428
lwrist 30.6757
lhand -24.2306 59.0663
lfingers 7.12502
lthumb 2.25469 -270.966
rfemur -8.58857 12.67 22.4902
rtibia 21.722
rfoot -13.7197 -19.2432
rtoes -17.8555
lfemur -13.9116 -18.0266 -18.7108
ltibia 27.7056
lfoot -18.3 12.3366
ltoes -26.1723
994
root 5.45126 17.5636 2.32658 325.241 89.5391 319.373
lowerback 0.971821 1.72203 1.33329
upperback -2.35389 2.35864 0.297163
thorax -2.91958 1.15797 -0.523178
lowerneck -20.1154 1.20133 2.38765
upperneck 26.3048 0.998138 0.807245
head 12.0045 0.927078 0.0871883
rclavicle 1.61761e-014 9.93923e-015
rhumerus -2.54948 -28.386 -12.0166
rradius 20.5758
rwrist 17.1724
rhand -17.8247 13.5934
rfingers 7.12502
rthumb 8.43954 -16.218
lclavicle 1.61761e-014 9.93923e-015
lhumerus -9.84686 14.3846 14.8621
lradius 40.6215
lwrist 29.2025
lhand -23.7366 58.0664
lfingers 7.12502
lthumb 2.73175 -271.971
rfemur -8.53069 12.8266 22.6114
rtibia 21.6826
rfoot -13.7059 -19.5074
rtoes -17.5917
lfemur -13.9668 -18.1294 -18.6031
ltibia 27.7745
lfoot -18.3537 12.3057
ltoes -26.0065
995
root 5.45886 17.5624 2.32738 306.945 89.6205 301.064
lowerback 1.01269 1.69025 1.3241
upperback -2.30742 2.31541 0.301204
thorax -2.89595 1.13664 -0.512898
lowerneck -20.327 1.19128 2.29733
upperneck 26.4414 0.953126 0.990091
head 12.0988 0.924374 0.166632
rclavicle -7.76503e-016 -7.35503e-015
rhumerus -2.4992 -28.8711 -10.67
rradius 20.2928
rwrist 16.5866
rhand -18.0005 13.9204
rfingers 7.12502
rthumb 8.26984 -15.8977
lclavicle -7.76503e-016 -7.35503e-015
lhumerus -9.34074 14.6672 13.5098
lradius 40.589
lwrist 27.8633
lhand -23.5345 57.2505
lfingers 7.12502
lthumb 2.9269 -272.79
rfemur -8.46118 12.9968 22.6711
rtibia 21.6296
rfoot -13.6594 -19.8199
rtoes -17.5145
lfemur -14.0151 -18.1736 -18.5637
ltibia 27.8514
lfoot -18.4014 12.2045
ltoes -25.9416
996
root 5.46756 17.5609 2.32766 283.471 89.6926 277.583
lowerback 1.06446 1.68041 1.30302
upperback -2.27017 2.29985 0.24849
thorax -2.8856 1.12849 -0.555616
lowerneck -20.4527 1.15006 2.34285
upperneck 26.5062 0.870901 0.99983
head 12.1493 0.894594 0.150752
rclavicle -1.55735e-014 -2.18663e-015
rhumerus -2.69603 -29.4178 -9.43314
rradius 20.0838
rwrist 16.2388
rhand -18.083 13.8861
rfingers 7.12502
rthumb 8.19018 -15.9351
lclavicle -1.55735e-014 -2.18663e-015
lhumerus -8.71002 14.708 12.2703
lradius 40.3301
lwrist 26.7289
lhand -23.611 56.7353
lfingers 7.12502
lthumb 2.85304 -273.304
rfemur -8.37199 13.1062 22.6773
rtibia 21.5608
rfoot -13.6093 -20.0701
rtoes -17.3762
lfemur -14.0563 -18.2117 -18.5825
ltibia 27.9387
lfoot -18.4634 12.0873
ltoes -25.8728
997
root 5.47683 17.56 2.32796 259.892 89.6431 253.948
lowerback 1.07086 1.65359 1.32489
upperback -2.2715 2.26414 0.228448
thorax -2.88958 1.10987 -0.587399
lowerneck -20.4692 1.13631 2.42893
upperneck 26.5211 0.847713 0.911551
head 12.1593 0.881395 0.0994061
rclavicle -1.05853e-014 -1.78906e-015
rhumerus -2.77873 -30.2427 -8.43403
rradius 19.7993
rwrist 16.5942
rhand -17.9478 13.5735
rfingers 7.12502
rthumb 8.32074 -16.2426
lclavicle -1.05853e-014 -1.78906e-015
lhumerus -8.24664 14.5561 11.111
lradius 40.0024
lwrist 25.6021
lhand -23.6473 56.3016
lfingers 7.12502
lthumb 2.81796 -273.737
rfemur -8.33449 13.3534 22.7448
rtibia 21.4993
rfoot -13.5524 -20.4415
rtoes -17.2534
lfemur -14.1561 -18.2664 -18.5189
ltibia 28.0215
lfoot -18.5437 11.9919
ltoes -25.7371
998
root 5.48698 17.5598 2.32947 249.518 89.4965 243.471
lowerback 0.888111 1.61103 1.31924
upperback -2.20363 2.20554 0.322459
thorax -2.72165 1.08347 -0.478714
lowerneck -20.5493 1.16481 2.392
upperneck 26.5225 0.91603 0.845305
head 12.1762 0.897937 0.0921548
rclavicle 2.39349e-014 1.39149e-015
rhumerus -2.82461 -30.3945 -7.44969
rradius 19.5978
rwrist 16.4518
rhand -17.9009 13.1914
rfingers 7.12502
rthumb 8.36596 -16.6229
lclavicle 2.39349e-014 1.39149e-015
lhumerus -8.04004 14.4665 10.2151
lradius 39.8069
lwrist 24.6948
lhand -23.7924 56.0896
lfingers 7.12502
lthumb 2.67787 -273.947
rfemur -8.34518 13.7209 22.8899
rtibia 21.4437
rfoot -13.4616 -20.9209
rtoes -17.2384
lfemur -14.3013 -18.325 -18.3629
ltibia 28.0997
lfoot -18.5865 11.9879
ltoes -26.0162
999
root 5.49743 17.5594 2.3311 241.178 89.3879 235.036
lowerback 0.464362 1.56415 1.14232
upperback -1.95771 2.13165 0.50044
thorax -2.24435 1.05544 -0.177726
lowerneck -20.7828 1.21515 2.3485
upperneck 26.4772 1.05734 0.609415
head 12.2066 0.919848 0.0341562
rclavicle 1.20762e-014 1.78906e-015
rhumerus -2.90254 -30.0121 -6.43875
rradius 19.4571
rwrist 15.5382
rhand -17.8952 12.895
rfingers 7.12502
rthumb 8.37143 -16.9192
lclavicle 1.20762e-014 1.78906e-015
lhumerus -7.94784 14.8451 9.6654
lradius 39.5359
lwrist 23.8102
lhand -24.1996 55.9549
lfingers 7.12502
lthumb 2.28457 -274.078
rfemur -8.34746 13.9619 22.9701
rtibia 21.3827
rfoot -13.3893 -21.2767
rtoes -17.178
lfemur -14.4296 -18.3942 -18.2704
ltibia 28.1776
lfoot -18.6131 12.0209
ltoes -26.4844
1000
root 5.50773 17.5591 2.33157 232.522 89.3245 226.303
lowerback 0.389176 1.50419 1.01774
upperback -1.92691 2.04939 0.566583
thorax -2.17798 1.01773 -0.0357836
lowerneck -20.9064 1.2546 2.44113
upperneck 26.573 1.1746 0.28866
head 12.2727 0.938286 -0.0820575
rclavicle -3.50731e-014 -5.56597e-015
rhumerus -3.10677 -29.5752 -5.63001
rradius 19.293
rwrist 15.1465
rhand -17.7426 12.6878
rfingers 7.12502
rthumb 8.51876 -17.1204
lclavicle -3.50731e-014 -5.56597e-015
lhumerus -7.9014 15.0494 9.1229
lradius 39.1159
lwrist 22.9314
lhand -24.6612 55.6432
lfingers 7.12502
lthumb 1.83879 -274.385
rfemur -8.33857 14.1085 22.9763
rtibia 21.3305
rfoot -13.329 -21.5568
rtoes -17.2114
lfemur -14.5271 -18.4543 -18.2579
ltibia 28.2445
lfoot -18.6535 11.978
ltoes -26.4914
1001
root 5.51821 17.5591 2.3309 228.88 89.2795 222.606
lowerback 0.35137 1.46822 0.942385
upperback -1.91981 2.00086 0.619722
thorax -2.15422 0.99559 0.0629759
lowerneck -20.9245 1.27142 2.41308
upperneck 26.5822 1.25853 0.121253
head 12.2815 0.949493 -0.126753
rclavicle 3.64024e-015 1.07344e-014
rhumerus -3.26528 -29.9593 -4.96898
rradius 19.1032
rwrist 16.336
rhand -17.2595 12.5083
rfingers 7.12502
rthumb 8.98495 -17.2804
lclavicle 3.64024e-015 1.07344e-014
lhumerus -7.94879 14.8735 8.66171
lradius 38.8246
lwrist 22.6503
lhand -24.9616 55.3402
lfingers 7.12502
lthumb 1.54861 -274.686
rfemur -8.33174 14.2178 22.9877
rtibia 21.3133
rfoot -13.316 -21.7567
rtoes -17.2485
lfemur -14.57 -18.5168 -18.2574
ltibia 28.2833
lfoot -18.6658 11.9973
ltoes -26.4931
